<svg xmlns="http://www.w3.org/2000/svg" width="520" height="320" viewBox="0 0 520 320"><defs><linearGradient id="bg" x2="1" y2="1"><stop stop-color="#1b2856"/><stop offset="1" stop-color="#245fa7"/></linearGradient><pattern id="grid" width="40" height="40" patternUnits="userSpaceOnUse"><path d="M40 0H0V40" fill="none" stroke="white" stroke-opacity=".06"/></pattern></defs><rect width="520" height="320" fill="url(#bg)"/><rect width="520" height="320" fill="url(#grid)"/><circle cx="435" cy="20" r="150" fill="none" stroke="white" stroke-opacity=".09" stroke-width="45"/><circle cx="50" cy="300" r="120" fill="none" stroke="white" stroke-opacity=".08" stroke-width="25"/><path d="M0 250L520 60V320H0z" fill="#000" fill-opacity=".13"/><svg x="206" y="44" width="108" height="108" viewBox="0 0 48 48" color="white"><rect width="15.5" height="15.5" x="5.5" y="5.5" fill="none" stroke="currentColor" stroke-linecap="round" stroke-linejoin="round" rx="2" ry="2"/><path fill="none" stroke="currentColor" stroke-linecap="round" stroke-linejoin="round" d="m32.451 6.465l-6.532 11.742C25.223 19.46 26.13 21 27.561 21h13.065c1.433-.002 2.337-1.541 1.64-2.793l-6.53-11.742a1.88 1.88 0 0 0-3.284 0"/><circle cx="34.093" cy="34.093" r="8.407" fill="none" stroke="currentColor" stroke-linecap="round" stroke-linejoin="round"/><path fill="none" stroke="currentColor" stroke-linecap="round" stroke-linejoin="round" d="m6.232 30.613l3.483 3.482l-3.483 3.483a2.5 2.5 0 0 0 3.536 3.535l3.482-3.482l3.482 3.482a2.5 2.5 0 0 0 3.536-3.535l-3.483-3.483l3.483-3.482a2.5 2.5 0 0 0-3.536-3.535L13.25 30.56l-3.482-3.482a2.5 2.5 0 0 0-3.536 3.535"/></svg><text x="260" y="208" fill="white" text-anchor="middle" font-family="Arial,sans-serif" font-size="34" font-weight="900" letter-spacing="1">PLAYSTATION</text><text x="260" y="239" fill="white" fill-opacity=".65" text-anchor="middle" font-family="Arial,sans-serif" font-size="11" letter-spacing="3">STORE · GIFT CARD</text><text x="24" y="295" fill="white" fill-opacity=".55" font-family="Arial,sans-serif" font-size="10" letter-spacing="2">GAME GOODS / DIGITAL EDITION</text></svg>